<svg id="svg" version="1.1" xmlns="http://www.w3.org/2000/svg" xmlns:xlink="http://www.w3.org/1999/xlink" width="400" height="125" viewBox="0, 0, 400,125"><g id="svgg"><path id="path0" d="M36.500 16.167 C 36.500 16.269,36.425 16.307,36.333 16.250 C 36.242 16.193,36.167 16.222,36.167 16.314 C 36.167 16.595,36.405 16.644,36.623 16.408 C 36.753 16.267,36.769 16.147,36.665 16.082 C 36.574 16.026,36.500 16.064,36.500 16.167 M25.271 18.300 C 25.199 18.416,25.238 18.501,25.365 18.503 C 25.539 18.505,25.537 18.534,25.357 18.648 C 25.201 18.747,25.278 18.791,25.607 18.788 C 25.869 18.787,25.989 18.752,25.874 18.712 C 25.759 18.671,25.714 18.558,25.775 18.460 C 25.837 18.360,25.807 18.330,25.707 18.392 C 25.609 18.453,25.498 18.412,25.461 18.301 C 25.409 18.145,25.367 18.144,25.271 18.300 M38.902 19.142 C 38.950 19.221,38.809 19.367,38.588 19.467 C 37.932 19.767,37.689 20.375,38.283 20.232 C 38.554 20.167,38.692 20.182,38.611 20.268 C 38.473 20.416,38.394 20.440,37.910 20.479 C 37.699 20.496,37.692 20.541,37.868 20.732 C 38.024 20.900,38.118 20.911,38.208 20.773 C 38.297 20.638,38.381 20.655,38.497 20.833 C 38.630 21.035,38.662 21.010,38.664 20.698 C 38.666 20.487,38.735 20.356,38.818 20.407 C 38.901 20.458,38.929 20.346,38.879 20.157 C 38.819 19.925,38.702 19.847,38.520 19.916 C 38.294 20.001,38.298 19.969,38.548 19.717 C 38.790 19.473,38.872 19.459,38.985 19.643 C 39.083 19.800,39.125 19.737,39.125 19.434 C 39.125 19.196,39.055 19.000,38.969 19.000 C 38.884 19.000,38.853 19.064,38.902 19.142 M19.256 24.764 C 19.100 25.002,19.017 25.239,19.070 25.292 C 19.123 25.345,19.167 25.301,19.167 25.194 C 19.167 25.087,19.249 25.019,19.349 25.042 C 19.450 25.065,19.597 24.915,19.677 24.708 C 19.875 24.198,19.603 24.234,19.256 24.764 M27.167 25.373 C 27.167 25.515,27.290 25.678,27.441 25.736 C 27.851 25.894,27.877 25.758,27.501 25.418 C 27.218 25.162,27.167 25.155,27.167 25.373 M19.333 37.958 C 19.333 38.072,28.752 38.070,40.917 37.955 C 43.483 37.931,39.677 37.894,32.458 37.872 C 25.240 37.851,19.333 37.890,19.333 37.958 M32.583 38.333 L 19.417 38.420 32.532 38.460 C 41.139 38.486,45.682 38.443,45.750 38.333 C 45.807 38.242,45.830 38.185,45.802 38.207 C 45.773 38.229,39.825 38.286,32.583 38.333 M18.713 41.208 C 18.405 41.606,18.315 41.833,18.463 41.833 C 18.546 41.833,18.699 41.646,18.803 41.417 C 19.009 40.966,18.970 40.876,18.713 41.208 M35.500 55.182 C 35.321 55.308,35.307 55.382,35.449 55.440 C 35.558 55.485,35.602 55.648,35.546 55.802 C 35.458 56.043,35.495 56.038,35.805 55.766 C 36.239 55.385,36.259 55.308,35.888 55.451 C 35.676 55.532,35.635 55.490,35.716 55.279 C 35.841 54.953,35.830 54.948,35.500 55.182 M57.411 60.298 C 57.415 60.615,57.342 60.733,57.167 60.694 C 57.029 60.664,56.975 60.697,57.046 60.769 C 57.271 60.993,57.667 60.980,57.667 60.749 C 57.667 60.627,57.747 60.501,57.846 60.468 C 57.949 60.434,57.893 60.288,57.715 60.127 C 57.419 59.859,57.405 59.868,57.411 60.298 M27.675 65.583 C 27.669 65.870,27.962 66.225,28.237 66.265 C 28.383 66.287,28.456 66.231,28.401 66.141 C 28.345 66.051,28.255 66.023,28.200 66.077 C 28.145 66.132,28.006 66.006,27.890 65.797 C 27.773 65.588,27.677 65.492,27.675 65.583 M64.333 75.333 C 64.201 75.415,64.148 75.537,64.216 75.605 C 64.284 75.672,64.426 75.640,64.533 75.533 C 64.785 75.282,64.645 75.141,64.333 75.333 M0.461 79.311 L 0.006 79.417 0.406 79.603 C 0.746 79.761,0.818 79.743,0.887 79.478 C 0.932 79.307,0.957 79.176,0.943 79.186 C 0.928 79.197,0.712 79.253,0.461 79.311 M61.428 83.780 C 61.365 83.944,61.437 84.167,61.601 84.321 C 61.831 84.537,61.855 84.539,61.736 84.333 C 61.657 84.196,61.613 83.952,61.640 83.792 C 61.701 83.421,61.569 83.413,61.428 83.780 M33.500 85.500 C 33.598 85.683,33.770 85.827,33.881 85.820 C 34.033 85.810,34.032 85.786,33.875 85.723 C 33.760 85.677,33.667 85.533,33.667 85.403 C 33.667 85.273,33.589 85.167,33.494 85.167 C 33.377 85.167,33.379 85.274,33.500 85.500 M60.473 89.945 C 60.105 90.043,59.960 90.449,60.252 90.561 C 60.414 90.623,60.451 90.565,60.377 90.367 C 60.290 90.134,60.315 90.119,60.516 90.282 C 60.717 90.445,60.762 90.422,60.762 90.157 C 60.762 89.979,60.759 89.842,60.756 89.853 C 60.753 89.863,60.625 89.905,60.473 89.945 M20.375 106.958 C 27.044 106.982,37.956 106.982,44.625 106.958 C 51.294 106.934,45.837 106.914,32.500 106.914 C 19.162 106.914,13.706 106.934,20.375 106.958 M19.958 109.458 C 26.856 109.482,38.144 109.482,45.042 109.458 C 51.940 109.434,46.296 109.415,32.500 109.415 C 18.704 109.415,13.060 109.434,19.958 109.458 " stroke="none" fill="#4bbc7c" fill-rule="evenodd"></path><path id="path1" d="M27.762 15.762 C 27.443 16.081,27.363 19.938,27.679 19.742 C 27.777 19.682,27.759 19.808,27.637 20.024 C 27.516 20.240,27.404 20.441,27.389 20.472 C 27.128 20.998,26.425 19.693,26.484 18.791 C 26.513 18.348,26.449 18.137,26.263 18.065 C 26.118 18.010,26.000 17.872,26.000 17.760 C 26.000 17.644,25.784 17.556,25.500 17.556 C 25.194 17.556,25.000 17.642,25.000 17.778 C 25.000 17.900,24.887 18.000,24.750 18.000 C 24.613 18.000,24.500 18.073,24.500 18.161 C 24.500 18.250,24.631 18.276,24.792 18.218 C 24.952 18.161,25.028 18.175,24.960 18.249 C 24.892 18.324,24.555 18.431,24.210 18.486 C 23.681 18.571,23.575 18.659,23.531 19.044 C 23.486 19.425,23.398 19.500,22.989 19.500 C 22.557 19.500,22.500 19.558,22.500 20.000 C 22.500 20.444,22.444 20.500,22.000 20.500 C 21.556 20.500,21.500 20.556,21.500 21.000 C 21.500 21.444,21.444 21.500,21.000 21.500 C 20.558 21.500,20.500 21.557,20.500 21.989 C 20.500 22.398,20.426 22.486,20.042 22.531 C 19.682 22.572,19.572 22.682,19.531 23.042 C 19.502 23.294,19.417 23.500,19.342 23.500 C 19.267 23.500,19.166 23.650,19.118 23.833 C 19.070 24.017,18.912 24.167,18.766 24.167 C 18.560 24.167,18.500 24.345,18.500 24.960 C 18.500 25.573,18.424 25.801,18.167 25.961 C 17.983 26.076,17.833 26.286,17.833 26.428 C 17.833 26.570,17.763 26.643,17.676 26.589 C 17.581 26.530,17.532 27.295,17.551 28.548 C 17.583 30.595,17.582 30.604,17.211 30.533 C 16.462 30.390,15.707 30.649,15.597 31.088 C 15.536 31.333,15.374 31.500,15.197 31.500 C 14.632 31.500,14.500 31.855,14.500 33.378 C 14.500 34.949,14.665 35.500,15.136 35.500 C 15.306 35.500,15.505 35.707,15.615 35.997 L 15.802 36.494 32.224 36.498 C 44.528 36.502,48.675 36.454,48.765 36.309 C 48.846 36.179,48.808 36.159,48.651 36.249 C 48.465 36.355,48.458 36.337,48.618 36.165 C 48.783 35.986,48.873 35.989,49.118 36.182 C 49.392 36.397,49.397 36.392,49.182 36.118 C 48.989 35.873,48.986 35.783,49.165 35.618 C 49.338 35.457,49.354 35.467,49.242 35.667 C 49.085 35.948,49.383 35.751,50.122 35.085 C 50.512 34.734,50.701 32.667,50.343 32.667 C 50.256 32.667,50.211 32.535,50.241 32.375 C 50.272 32.215,50.192 31.987,50.065 31.868 C 49.938 31.750,49.833 31.711,49.833 31.781 C 49.833 31.850,49.716 31.741,49.574 31.537 C 49.431 31.333,49.356 31.099,49.407 31.016 C 49.523 30.829,48.611 30.500,47.975 30.500 C 47.450 30.500,47.465 30.555,47.471 28.672 C 47.474 28.080,47.427 27.517,47.367 27.422 C 47.307 27.328,47.257 27.137,47.254 27.000 C 47.252 26.863,47.100 26.750,46.917 26.750 C 46.624 26.750,46.572 26.607,46.488 25.583 C 46.435 24.942,46.379 24.486,46.363 24.571 C 46.307 24.862,45.500 23.942,45.500 23.588 C 45.500 23.393,45.406 23.132,45.292 23.009 C 45.125 22.829,45.125 22.808,45.292 22.902 C 45.406 22.967,45.500 22.942,45.500 22.846 C 45.500 22.751,45.294 22.621,45.043 22.558 C 44.569 22.439,44.001 22.000,44.321 22.000 C 44.420 22.000,44.500 21.887,44.500 21.750 C 44.500 21.585,44.335 21.500,44.011 21.500 C 43.602 21.500,43.514 21.426,43.469 21.042 C 43.430 20.703,43.312 20.568,43.015 20.527 C 42.608 20.469,41.990 20.000,42.321 20.000 C 42.420 20.000,42.500 19.887,42.500 19.750 C 42.500 19.583,42.333 19.500,42.000 19.500 C 41.584 19.500,41.500 19.433,41.500 19.101 C 41.500 18.605,41.235 18.500,39.986 18.500 C 38.995 18.500,38.750 18.329,39.292 18.013 C 39.452 17.920,39.494 17.841,39.384 17.838 C 39.275 17.836,39.084 17.978,38.960 18.155 C 38.836 18.332,38.526 18.529,38.271 18.593 C 38.016 18.657,37.742 18.869,37.664 19.063 C 37.489 19.496,37.476 19.382,37.469 17.385 L 37.463 15.853 36.957 15.677 C 36.073 15.369,28.081 15.443,27.762 15.762 M36.623 16.408 C 36.405 16.644,36.167 16.595,36.167 16.314 C 36.167 16.222,36.242 16.193,36.333 16.250 C 36.425 16.307,36.500 16.269,36.500 16.167 C 36.500 16.064,36.574 16.026,36.665 16.082 C 36.769 16.147,36.753 16.267,36.623 16.408 M25.707 18.392 C 25.807 18.330,25.837 18.360,25.775 18.460 C 25.714 18.558,25.759 18.671,25.874 18.712 C 25.989 18.752,25.869 18.787,25.607 18.788 C 25.278 18.791,25.201 18.747,25.357 18.648 C 25.537 18.534,25.539 18.505,25.365 18.503 C 25.238 18.501,25.199 18.416,25.271 18.300 C 25.367 18.144,25.409 18.145,25.461 18.301 C 25.498 18.412,25.609 18.453,25.707 18.392 M39.125 19.434 C 39.125 19.737,39.083 19.800,38.985 19.643 C 38.872 19.459,38.790 19.473,38.548 19.717 C 38.298 19.969,38.294 20.001,38.520 19.916 C 38.702 19.847,38.819 19.925,38.879 20.157 C 38.929 20.346,38.901 20.458,38.818 20.407 C 38.735 20.356,38.666 20.487,38.664 20.698 C 38.662 21.010,38.630 21.035,38.497 20.833 C 38.381 20.655,38.297 20.638,38.208 20.773 C 38.118 20.911,38.024 20.900,37.868 20.732 C 37.692 20.541,37.699 20.496,37.910 20.479 C 38.394 20.440,38.473 20.416,38.611 20.268 C 38.692 20.182,38.554 20.167,38.283 20.232 C 37.689 20.375,37.932 19.767,38.588 19.467 C 38.809 19.367,38.950 19.221,38.902 19.142 C 38.853 19.064,38.884 19.000,38.969 19.000 C 39.055 19.000,39.125 19.196,39.125 19.434 M37.517 22.015 C 37.535 23.374,37.372 24.073,37.090 23.839 C 36.814 23.610,36.623 23.830,36.855 24.110 C 36.998 24.282,36.976 24.333,36.759 24.333 C 36.544 24.333,36.505 24.422,36.593 24.708 C 36.657 24.917,36.644 25.023,36.564 24.946 C 36.046 24.452,36.664 20.940,37.211 21.277 C 37.283 21.322,37.331 21.296,37.318 21.221 C 37.275 20.975,37.331 20.776,37.418 20.863 C 37.465 20.909,37.510 21.428,37.517 22.015 M28.190 23.258 C 28.508 23.358,28.585 23.737,28.508 24.820 C 28.470 25.361,28.000 26.128,28.000 25.650 C 28.000 25.536,27.891 25.323,27.758 25.175 C 27.613 25.015,27.504 24.510,27.486 23.912 C 27.444 22.541,27.483 22.335,27.702 22.788 C 27.800 22.992,28.020 23.204,28.190 23.258 M28.431 22.655 C 28.572 22.537,28.672 22.540,28.748 22.663 C 28.808 22.761,28.796 22.831,28.721 22.818 C 28.384 22.759,28.271 22.852,28.500 23.000 C 28.685 23.119,28.692 23.162,28.530 23.164 C 28.291 23.167,27.833 22.771,27.833 22.562 C 27.833 22.491,27.922 22.522,28.029 22.629 C 28.165 22.765,28.289 22.773,28.431 22.655 M19.677 24.708 C 19.597 24.915,19.450 25.065,19.349 25.042 C 19.249 25.019,19.167 25.087,19.167 25.194 C 19.167 25.301,19.123 25.345,19.070 25.292 C 18.950 25.173,19.485 24.333,19.680 24.333 C 19.759 24.333,19.757 24.502,19.677 24.708 M27.585 25.304 C 27.540 25.349,27.596 25.501,27.710 25.641 C 27.884 25.856,27.869 25.878,27.611 25.781 C 27.443 25.718,27.275 25.667,27.236 25.667 C 27.198 25.667,27.167 25.567,27.167 25.444 C 27.167 25.322,27.279 25.222,27.417 25.222 C 27.554 25.222,27.630 25.259,27.585 25.304 M17.611 37.611 C 17.370 37.852,17.501 39.392,17.792 39.734 C 18.071 40.063,18.070 40.068,17.784 39.845 C 17.502 39.626,17.487 39.681,17.526 40.807 C 17.548 41.463,17.627 42.000,17.700 42.000 C 18.188 42.000,18.502 42.712,18.526 43.876 C 18.554 45.191,18.687 45.500,19.229 45.500 C 19.549 45.500,19.583 45.592,19.583 46.458 L 19.583 47.417 20.125 47.469 C 20.471 47.502,20.667 47.447,20.667 47.316 C 20.667 47.203,20.715 47.159,20.774 47.218 C 20.833 47.277,20.781 47.446,20.659 47.593 C 20.479 47.810,20.476 47.924,20.647 48.198 C 20.765 48.386,20.779 48.486,20.679 48.424 C 20.575 48.360,20.500 48.451,20.500 48.643 C 20.500 49.222,20.692 49.500,21.090 49.500 C 21.389 49.500,21.490 49.605,21.531 49.958 C 21.572 50.318,21.682 50.428,22.042 50.469 C 22.517 50.524,22.525 50.548,22.556 51.969 C 22.562 52.255,22.684 52.379,23.032 52.448 C 23.289 52.500,23.509 52.607,23.521 52.688 C 23.567 53.011,23.594 53.092,23.721 53.292 C 23.793 53.406,24.045 53.500,24.279 53.500 C 24.623 53.500,24.689 53.564,24.618 53.833 C 24.570 54.016,24.611 54.215,24.708 54.276 C 24.818 54.343,24.839 54.296,24.763 54.151 C 24.697 54.022,24.744 54.041,24.869 54.193 C 25.023 54.379,25.324 54.460,25.799 54.443 C 26.403 54.420,26.500 54.464,26.500 54.758 C 26.500 55.402,27.921 55.866,28.252 55.331 C 28.438 55.028,28.627 55.315,28.583 55.833 C 28.560 56.111,28.618 56.386,28.713 56.445 C 28.812 56.507,28.835 56.470,28.766 56.359 C 28.701 56.253,28.726 56.167,28.823 56.167 C 28.921 56.167,29.000 56.239,29.000 56.327 C 29.000 56.564,36.041 56.508,36.252 56.270 C 36.343 56.167,36.417 55.971,36.417 55.833 C 36.417 55.652,36.643 55.569,37.246 55.531 C 38.159 55.473,38.500 55.281,38.500 54.824 C 38.500 54.619,38.646 54.505,38.958 54.469 C 39.318 54.428,39.428 54.318,39.469 53.958 C 39.517 53.545,39.586 53.500,40.178 53.500 C 40.869 53.500,41.414 53.122,41.536 52.557 C 41.573 52.388,41.674 52.262,41.760 52.276 C 41.930 52.304,42.236 52.017,42.322 51.750 C 42.352 51.658,42.412 51.488,42.457 51.373 C 42.501 51.257,42.499 51.013,42.451 50.831 C 42.377 50.549,42.448 50.500,42.932 50.500 C 43.452 50.500,43.500 50.458,43.500 50.000 C 43.500 49.676,43.588 49.493,43.750 49.479 C 43.887 49.468,44.092 49.449,44.205 49.438 C 44.330 49.425,44.431 49.089,44.463 48.583 C 44.529 47.532,44.616 47.278,44.877 47.378 C 45.212 47.507,45.423 47.134,45.437 46.393 C 45.452 45.611,45.604 45.109,45.790 45.222 C 46.253 45.502,46.702 43.521,46.332 42.832 C 46.200 42.584,46.195 42.498,46.317 42.573 C 46.423 42.639,46.500 42.564,46.500 42.394 C 46.500 42.233,46.697 41.896,46.938 41.644 C 47.365 41.199,47.366 41.189,46.999 41.285 C 46.722 41.358,46.644 41.322,46.703 41.150 C 46.748 41.022,46.901 40.937,47.044 40.962 C 47.236 40.996,47.279 40.913,47.209 40.645 C 47.144 40.395,47.175 40.319,47.307 40.400 C 47.447 40.487,47.500 40.153,47.500 39.182 C 47.500 38.031,47.455 37.821,47.178 37.673 C 46.817 37.480,17.803 37.419,17.611 37.611 M40.917 37.955 C 28.752 38.070,19.333 38.072,19.333 37.958 C 19.333 37.890,25.240 37.851,32.458 37.872 C 39.677 37.894,43.483 37.931,40.917 37.955 M45.750 38.333 C 45.682 38.443,41.139 38.486,32.532 38.460 L 19.417 38.420 32.583 38.333 C 39.825 38.286,45.773 38.229,45.802 38.207 C 45.830 38.185,45.807 38.242,45.750 38.333 M18.803 41.417 C 18.699 41.646,18.546 41.833,18.463 41.833 C 18.315 41.833,18.405 41.606,18.713 41.208 C 18.970 40.876,19.009 40.966,18.803 41.417 M15.646 53.611 C 15.634 53.642,15.606 53.817,15.583 54.000 C 15.560 54.183,15.532 54.390,15.521 54.458 C 15.510 54.527,15.053 54.571,14.505 54.557 C 13.958 54.542,13.517 54.580,13.525 54.640 C 13.628 55.408,13.518 55.500,12.500 55.500 L 11.500 55.500 11.500 56.000 C 11.500 56.444,11.444 56.500,11.000 56.500 C 10.556 56.500,10.500 56.556,10.500 57.000 C 10.500 57.444,10.444 57.500,10.000 57.500 C 9.556 57.500,9.500 57.556,9.500 58.000 C 9.500 58.444,9.444 58.500,9.000 58.500 C 8.650 58.500,8.500 58.581,8.500 58.770 C 8.500 58.995,8.457 59.005,8.243 58.827 C 7.899 58.542,7.518 58.870,7.799 59.208 C 7.939 59.377,7.904 59.480,7.652 59.637 C 7.469 59.751,7.366 59.919,7.423 60.010 C 7.479 60.101,7.425 60.154,7.304 60.129 C 7.183 60.104,7.102 60.177,7.125 60.292 C 7.148 60.406,7.110 60.491,7.042 60.480 C 6.644 60.418,6.500 60.553,6.500 60.989 C 6.500 61.398,6.426 61.486,6.042 61.531 C 5.657 61.575,5.575 61.673,5.530 62.138 C 5.490 62.553,5.413 62.669,5.226 62.597 C 4.894 62.470,4.579 62.816,4.559 63.333 C 4.510 64.555,4.434 65.165,4.347 65.036 C 4.294 64.957,4.123 64.845,3.967 64.788 C 3.617 64.659,3.754 65.139,4.156 65.453 C 4.300 65.565,4.348 65.658,4.263 65.661 C 4.179 65.664,3.989 65.557,3.841 65.424 C 3.597 65.203,3.570 65.295,3.539 66.449 C 3.505 67.737,3.191 68.460,2.769 68.219 C 2.667 68.161,2.639 68.175,2.707 68.250 C 2.775 68.325,2.753 68.479,2.659 68.592 C 2.565 68.705,2.500 68.862,2.514 68.941 C 2.585 69.337,2.462 69.500,2.092 69.500 C 1.867 69.500,1.599 69.631,1.496 69.792 C 1.317 70.069,1.312 70.069,1.399 69.792 C 1.449 69.631,1.417 69.500,1.328 69.500 C 1.239 69.500,1.167 69.620,1.167 69.766 C 1.167 69.912,1.015 70.071,0.831 70.119 C 0.646 70.167,0.505 70.292,0.517 70.395 C 0.591 71.019,0.475 71.500,0.250 71.500 C 0.035 71.500,-0.000 72.048,-0.000 75.436 L -0.000 79.371 0.476 79.301 C 0.875 79.243,0.939 79.282,0.870 79.543 C 0.813 79.764,0.737 79.803,0.611 79.678 C 0.301 79.367,0.000 79.485,0.000 79.917 C 0.000 80.176,0.094 80.333,0.250 80.333 C 0.457 80.333,0.504 80.673,0.525 82.292 C 0.562 85.162,0.571 85.309,0.708 85.224 C 0.777 85.182,0.833 85.226,0.833 85.323 C 0.833 85.567,1.454 86.166,1.708 86.169 C 1.875 86.171,1.875 86.198,1.709 86.304 C 1.556 86.401,1.509 87.064,1.531 88.792 C 1.548 90.088,1.623 91.111,1.697 91.064 C 1.772 91.018,1.833 91.074,1.833 91.188 C 1.833 91.302,1.995 91.567,2.192 91.777 C 2.517 92.123,2.548 92.327,2.526 93.954 C 2.513 94.942,2.568 96.031,2.650 96.374 C 2.749 96.792,2.742 96.963,2.627 96.892 C 2.532 96.833,2.492 96.889,2.537 97.018 C 2.582 97.146,2.749 97.226,2.909 97.197 C 3.080 97.166,3.155 97.217,3.091 97.320 C 3.025 97.427,3.084 97.457,3.241 97.397 C 3.460 97.313,3.501 97.486,3.508 98.524 C 3.530 102.044,3.554 102.486,3.719 102.384 C 3.825 102.319,3.847 102.392,3.775 102.577 C 3.653 102.896,3.919 103.337,4.229 103.328 C 4.332 103.325,4.285 103.247,4.125 103.153 C 3.812 102.971,3.730 102.667,3.994 102.667 C 4.266 102.667,4.562 103.387,4.525 103.958 C 4.500 104.345,4.561 104.500,4.740 104.500 C 4.877 104.500,5.156 104.725,5.360 105.000 C 5.566 105.279,5.884 105.500,6.078 105.500 C 6.466 105.500,6.985 106.488,6.611 106.513 C 6.213 106.539,5.799 106.645,5.697 106.747 C 5.530 106.914,5.535 108.500,5.703 108.500 C 5.785 108.500,5.813 108.564,5.765 108.642 C 5.717 108.721,5.862 108.869,6.089 108.972 C 6.315 109.075,6.500 109.236,6.500 109.330 C 6.500 109.423,6.654 109.500,6.843 109.500 C 7.060 109.500,7.143 109.429,7.067 109.308 C 6.998 109.195,7.021 109.160,7.124 109.223 C 7.220 109.283,18.800 109.334,32.858 109.338 L 58.417 109.345 58.465 107.922 C 58.499 106.926,58.455 106.500,58.319 106.500 C 58.178 106.500,58.181 106.433,58.332 106.252 C 58.445 106.116,58.494 105.891,58.441 105.752 C 58.366 105.557,58.474 105.500,58.922 105.500 C 59.453 105.500,59.500 105.459,59.500 105.000 C 59.500 104.557,59.556 104.500,59.994 104.500 L 60.487 104.500 60.535 102.958 C 60.574 101.720,60.633 101.417,60.833 101.417 C 61.342 101.417,61.463 101.082,61.464 99.667 C 61.468 95.376,61.451 95.528,61.958 95.469 L 62.417 95.417 62.449 93.008 C 62.486 90.178,62.542 89.883,63.088 89.634 C 63.608 89.397,63.723 88.220,63.208 88.399 C 62.949 88.490,62.951 88.474,63.225 88.262 C 63.460 88.079,63.523 87.834,63.495 87.220 C 63.395 85.091,63.481 84.349,63.823 84.415 C 64.305 84.508,64.432 84.208,64.483 82.856 C 64.520 81.868,64.486 81.655,64.306 81.763 C 64.121 81.875,64.120 81.852,64.305 81.624 C 64.427 81.474,64.512 81.178,64.495 80.967 C 64.355 79.266,64.493 78.523,64.958 78.469 L 65.417 78.417 65.448 74.958 L 65.479 71.500 65.000 71.500 C 64.603 71.500,64.513 71.423,64.469 71.042 C 64.428 70.685,64.318 70.572,63.968 70.532 C 63.622 70.492,63.508 70.378,63.468 70.032 C 63.428 69.683,63.307 69.565,62.917 69.495 C 62.585 69.435,62.424 69.312,62.438 69.129 C 62.451 68.963,62.267 68.785,61.980 68.685 C 61.635 68.564,61.500 68.407,61.500 68.125 C 61.500 67.910,61.410 67.643,61.300 67.533 C 61.144 67.378,61.146 67.333,61.308 67.333 C 61.454 67.333,61.502 67.082,61.467 66.500 C 61.416 65.648,61.351 65.588,60.531 65.624 C 60.410 65.629,60.353 65.591,60.404 65.540 C 60.455 65.489,60.414 65.347,60.311 65.224 C 60.209 65.101,60.195 65.000,60.280 65.000 C 60.758 65.000,60.507 63.660,60.011 63.560 C 59.505 63.459,58.933 63.000,59.313 63.000 C 59.569 63.000,59.551 61.885,59.292 61.723 C 59.086 61.594,58.756 61.498,58.403 61.462 C 58.303 61.453,58.222 61.348,58.222 61.230 C 58.222 61.111,58.292 61.058,58.377 61.110 C 58.462 61.163,58.505 61.066,58.473 60.895 C 58.400 60.515,57.667 60.359,57.667 60.724 C 57.667 60.975,57.281 61.003,57.046 60.769 C 56.975 60.697,57.029 60.664,57.167 60.694 C 57.352 60.736,57.417 60.599,57.417 60.167 C 57.417 59.657,57.360 59.577,56.968 59.532 C 56.622 59.492,56.508 59.378,56.468 59.032 C 56.425 58.659,56.333 58.582,55.923 58.577 C 55.490 58.572,55.428 58.510,55.423 58.077 C 55.418 57.664,55.342 57.575,54.958 57.531 C 54.574 57.486,54.500 57.398,54.500 56.989 C 54.500 56.557,54.442 56.500,54.000 56.500 C 53.532 56.500,53.467 56.417,53.510 55.875 C 53.523 55.704,52.878 55.537,52.125 55.517 C 51.545 55.501,51.500 55.464,51.500 55.000 L 51.500 54.500 50.500 54.500 C 49.907 54.500,49.500 54.428,49.500 54.323 C 49.500 54.226,49.433 54.188,49.351 54.239 C 49.269 54.290,49.155 54.144,49.098 53.916 C 49.041 53.687,48.916 53.500,48.820 53.500 C 48.725 53.500,48.703 53.594,48.772 53.708 C 48.866 53.865,48.838 53.872,48.657 53.738 C 48.516 53.633,47.400 53.546,45.958 53.527 L 43.500 53.496 43.500 53.998 C 43.500 54.322,43.416 54.500,43.262 54.500 C 42.807 54.500,42.500 55.008,42.500 55.762 C 42.500 56.362,42.444 56.500,42.200 56.500 C 41.707 56.500,41.500 56.854,41.500 57.700 C 41.500 58.500,41.401 58.599,40.660 58.531 C 40.610 58.527,40.551 58.759,40.529 59.047 C 40.493 59.522,40.341 59.737,39.942 59.878 C 39.864 59.905,39.706 60.300,39.590 60.756 C 39.411 61.459,39.320 61.583,38.982 61.583 C 38.568 61.583,38.569 61.579,38.521 62.906 C 38.503 63.400,38.437 63.485,38.042 63.531 C 37.677 63.573,37.566 63.687,37.500 64.090 C 37.434 64.493,37.334 64.596,37.011 64.594 C 36.654 64.593,36.603 64.670,36.589 65.232 C 36.575 65.793,35.803 66.859,35.576 66.632 C 35.503 66.559,35.457 64.857,35.480 63.053 L 35.500 61.522 35.958 61.469 C 36.318 61.428,36.428 61.318,36.469 60.958 C 36.505 60.646,36.619 60.500,36.824 60.500 C 37.349 60.500,37.497 60.108,37.456 58.819 L 37.417 57.583 35.674 57.535 C 34.716 57.509,33.984 57.540,34.048 57.603 C 34.203 57.758,33.836 58.188,33.648 58.072 C 33.567 58.021,33.500 58.097,33.500 58.240 C 33.500 58.449,33.288 58.500,32.431 58.500 C 31.729 58.500,31.333 58.572,31.280 58.708 C 31.236 58.823,31.211 58.655,31.225 58.335 C 31.254 57.666,31.321 57.688,28.945 57.560 L 27.474 57.480 27.529 58.948 C 27.583 60.403,27.588 60.417,28.032 60.468 C 28.378 60.508,28.492 60.622,28.532 60.968 C 28.572 61.315,28.685 61.428,29.032 61.468 L 29.480 61.520 29.532 63.385 C 29.612 66.283,29.575 66.500,29.000 66.500 C 28.736 66.500,28.473 66.424,28.415 66.331 C 28.357 66.237,28.244 66.202,28.164 66.252 C 28.083 66.302,27.938 66.195,27.842 66.016 C 27.599 65.563,27.632 65.341,27.881 65.750 C 27.992 65.933,28.177 66.102,28.292 66.125 C 28.669 66.200,28.509 65.749,28.000 65.302 C 27.597 64.949,27.500 64.731,27.500 64.182 C 27.500 63.535,27.474 63.500,27.000 63.500 C 26.625 63.500,26.500 63.423,26.500 63.192 C 26.500 62.613,26.139 61.847,25.819 61.746 C 25.604 61.677,25.500 61.491,25.500 61.173 C 25.500 60.702,25.255 60.500,24.682 60.500 C 24.457 60.500,24.407 60.392,24.461 60.023 C 24.516 59.646,24.457 59.528,24.177 59.455 C 23.983 59.404,23.845 59.262,23.870 59.139 C 23.896 59.017,23.823 58.935,23.708 58.958 C 23.501 59.000,23.438 58.739,23.491 58.061 C 23.523 57.653,22.943 56.612,22.777 56.778 C 22.716 56.839,22.667 56.797,22.667 56.685 C 22.667 56.572,22.609 56.516,22.538 56.560 C 22.467 56.604,22.417 56.274,22.428 55.826 C 22.439 55.376,22.380 55.055,22.296 55.106 C 22.213 55.158,22.168 55.069,22.197 54.909 C 22.226 54.749,22.146 54.582,22.018 54.537 C 21.868 54.485,21.831 54.529,21.914 54.662 C 22.011 54.819,21.962 54.825,21.709 54.689 C 21.526 54.592,21.320 54.565,21.250 54.631 C 21.180 54.696,21.220 54.591,21.338 54.397 C 21.836 53.579,21.580 53.500,18.506 53.529 C 16.944 53.543,15.657 53.580,15.646 53.611 M35.716 55.279 C 35.635 55.490,35.676 55.532,35.888 55.451 C 36.259 55.308,36.239 55.385,35.805 55.766 C 35.495 56.038,35.458 56.043,35.546 55.802 C 35.602 55.648,35.558 55.485,35.449 55.440 C 35.307 55.382,35.321 55.308,35.500 55.182 C 35.830 54.948,35.841 54.953,35.716 55.279 M40.430 60.111 C 40.407 60.264,40.264 60.407,40.111 60.430 C 39.785 60.478,39.753 60.314,40.033 60.033 C 40.314 59.753,40.478 59.785,40.430 60.111 M25.929 62.071 C 26.228 62.371,26.228 62.444,25.926 62.444 C 25.794 62.444,25.700 62.363,25.718 62.264 C 25.735 62.165,25.651 62.104,25.529 62.129 C 25.408 62.154,25.356 62.098,25.414 62.004 C 25.555 61.777,25.646 61.788,25.929 62.071 M60.742 71.808 C 60.796 71.977,61.019 72.198,61.239 72.298 C 61.458 72.398,61.686 72.630,61.744 72.815 C 61.803 72.999,61.997 73.196,62.175 73.253 C 62.526 73.364,62.524 73.353,62.528 75.083 C 62.534 77.711,62.551 77.623,62.042 77.602 L 61.583 77.583 61.538 80.157 C 61.494 82.709,61.298 83.537,60.813 83.237 C 60.735 83.189,60.720 83.278,60.780 83.435 C 60.842 83.595,60.822 83.679,60.735 83.626 C 60.643 83.569,60.561 84.522,60.532 85.968 C 60.506 87.309,60.426 88.446,60.355 88.495 C 60.284 88.544,60.177 88.715,60.118 88.875 C 60.059 89.035,59.896 89.167,59.755 89.167 C 59.469 89.167,59.458 89.197,59.601 89.569 C 59.656 89.713,59.787 89.781,59.892 89.720 C 59.997 89.659,59.963 89.754,59.816 89.930 C 59.602 90.185,59.542 90.705,59.521 92.490 C 59.494 94.744,59.283 95.528,58.785 95.220 C 58.688 95.160,58.666 95.197,58.734 95.308 C 58.799 95.413,58.792 95.500,58.717 95.500 C 58.643 95.500,58.559 96.830,58.531 98.455 C 58.503 100.080,58.460 101.429,58.435 101.454 C 58.410 101.479,58.193 101.515,57.953 101.535 C 57.712 101.555,57.542 101.598,57.574 101.630 C 57.797 101.852,57.347 102.583,56.988 102.583 C 56.684 102.583,56.583 102.673,56.583 102.944 C 56.583 103.143,56.539 103.350,56.484 103.405 C 56.405 103.484,9.024 103.528,8.417 103.450 C 8.179 103.419,7.476 102.667,7.685 102.667 C 7.779 102.667,7.742 102.552,7.602 102.412 C 7.462 102.272,7.390 102.046,7.442 101.911 C 7.508 101.738,7.384 101.635,7.018 101.562 C 6.435 101.445,6.459 101.597,6.499 98.292 C 6.513 97.155,6.461 96.667,6.325 96.667 C 6.214 96.667,6.176 96.550,6.235 96.396 C 6.347 96.105,6.074 95.667,5.781 95.667 C 5.683 95.667,5.748 95.773,5.926 95.903 C 6.104 96.033,6.187 96.202,6.111 96.278 C 6.035 96.354,5.866 96.271,5.736 96.093 C 5.498 95.767,5.478 95.479,5.476 92.375 C 5.475 90.541,5.510 90.610,4.583 90.615 C 4.478 90.616,4.431 89.673,4.455 88.041 C 4.482 86.290,4.430 85.352,4.295 85.108 C 4.185 84.911,4.111 84.696,4.129 84.631 C 4.148 84.566,4.059 84.552,3.932 84.601 C 3.545 84.749,3.482 84.422,3.468 82.209 C 3.455 79.947,3.349 79.500,2.827 79.500 C 2.471 79.500,2.456 79.292,2.478 74.520 C 2.488 72.477,2.501 72.429,3.051 72.422 C 3.296 72.418,3.425 72.306,3.441 72.083 C 3.454 71.900,3.473 71.694,3.482 71.625 C 3.528 71.302,60.639 71.485,60.742 71.808 M62.125 72.542 C 62.102 72.656,62.165 72.735,62.264 72.718 C 62.363 72.700,62.444 72.794,62.444 72.926 C 62.444 73.230,62.371 73.229,62.061 72.918 C 61.924 72.781,61.859 72.594,61.916 72.501 C 62.060 72.269,62.175 72.291,62.125 72.542 M64.533 75.533 C 64.426 75.640,64.284 75.672,64.216 75.605 C 64.148 75.537,64.201 75.415,64.333 75.333 C 64.645 75.141,64.785 75.282,64.533 75.533 M61.640 83.792 C 61.613 83.952,61.657 84.196,61.736 84.333 C 61.855 84.539,61.831 84.537,61.601 84.321 C 61.437 84.167,61.365 83.944,61.428 83.780 C 61.569 83.413,61.701 83.421,61.640 83.792 M30.646 84.625 C 30.634 84.648,30.616 84.835,30.604 85.042 C 30.588 85.338,30.469 85.428,30.042 85.469 L 29.500 85.521 29.500 87.247 C 29.500 89.244,29.566 89.500,30.080 89.500 C 30.365 89.500,30.482 89.621,30.556 89.986 L 30.653 90.473 32.576 90.488 L 34.500 90.502 34.500 90.012 C 34.500 89.601,34.574 89.514,34.958 89.469 L 35.417 89.417 35.465 87.778 C 35.496 86.708,35.454 86.175,35.344 86.243 C 35.252 86.300,35.129 86.156,35.070 85.923 C 35.012 85.691,34.893 85.500,34.805 85.500 C 34.718 85.500,34.701 85.587,34.766 85.692 C 34.840 85.812,34.812 85.840,34.692 85.766 C 34.587 85.701,34.500 85.470,34.500 85.253 C 34.500 84.679,30.912 84.095,30.646 84.625 M33.667 85.403 C 33.667 85.533,33.760 85.677,33.875 85.723 C 34.032 85.786,34.033 85.810,33.881 85.820 C 33.770 85.827,33.598 85.683,33.500 85.500 C 33.379 85.274,33.377 85.167,33.494 85.167 C 33.589 85.167,33.667 85.273,33.667 85.403 M60.762 90.157 C 60.762 90.422,60.717 90.445,60.516 90.282 C 60.315 90.119,60.290 90.134,60.377 90.367 C 60.451 90.565,60.414 90.623,60.252 90.561 C 59.960 90.449,60.105 90.043,60.473 89.945 C 60.625 89.905,60.753 89.863,60.756 89.853 C 60.759 89.842,60.762 89.979,60.762 90.157 M44.625 106.958 C 37.956 106.982,27.044 106.982,20.375 106.958 C 13.706 106.934,19.162 106.914,32.500 106.914 C 45.837 106.914,51.294 106.934,44.625 106.958 " stroke="none" fill="#4abc74" fill-rule="evenodd"></path><path id="path2" d="M26.000 17.626 C 26.000 17.718,26.113 17.886,26.250 18.000 C 26.389 18.116,26.500 18.134,26.500 18.041 C 26.500 17.949,26.387 17.781,26.250 17.667 C 26.111 17.551,26.000 17.533,26.000 17.626 M38.929 17.929 C 38.785 18.073,38.667 18.277,38.667 18.382 C 38.667 18.488,38.783 18.407,38.926 18.204 C 39.069 18.000,39.275 17.836,39.384 17.838 C 39.494 17.841,39.452 17.920,39.292 18.013 C 38.806 18.296,38.962 18.500,39.667 18.500 C 40.033 18.500,40.333 18.421,40.333 18.323 C 40.333 18.226,40.259 18.193,40.169 18.249 C 40.071 18.309,40.049 18.234,40.114 18.063 C 40.200 17.840,40.160 17.800,39.937 17.886 C 39.766 17.951,39.691 17.929,39.751 17.831 C 39.918 17.561,39.212 17.645,38.929 17.929 M26.667 19.885 C 26.804 20.002,27.013 20.206,27.130 20.337 C 27.309 20.538,27.333 20.513,27.282 20.178 C 27.240 19.904,27.095 19.762,26.819 19.725 C 26.475 19.679,26.453 19.702,26.667 19.885 M37.084 21.166 C 36.918 21.350,36.836 21.500,36.903 21.500 C 37.078 21.500,37.554 20.998,37.463 20.908 C 37.421 20.866,37.251 20.982,37.084 21.166 M27.776 22.742 C 27.711 22.912,27.764 22.952,27.954 22.879 C 28.154 22.802,28.198 22.846,28.121 23.046 C 28.047 23.239,28.088 23.289,28.266 23.221 C 28.481 23.138,28.476 23.083,28.231 22.813 C 27.892 22.437,27.893 22.438,27.776 22.742 M18.751 23.832 C 18.585 24.016,18.503 24.167,18.569 24.167 C 18.745 24.167,19.220 23.665,19.130 23.574 C 19.088 23.532,18.917 23.648,18.751 23.832 M37.089 23.658 C 37.027 23.758,36.888 23.788,36.780 23.726 C 36.672 23.664,36.639 23.675,36.707 23.750 C 36.775 23.825,36.747 23.987,36.645 24.110 C 36.351 24.463,36.630 24.370,37.014 23.986 C 37.205 23.795,37.325 23.603,37.281 23.558 C 37.236 23.514,37.150 23.559,37.089 23.658 M27.500 24.808 C 27.500 24.969,28.053 25.500,28.221 25.500 C 28.420 25.500,28.341 25.198,28.071 24.929 C 27.787 24.644,27.500 24.583,27.500 24.808 M50.084 35.166 C 49.918 35.350,49.859 35.500,49.954 35.500 C 50.163 35.500,50.579 35.024,50.467 34.912 C 50.423 34.867,50.251 34.982,50.084 35.166 M49.022 36.095 C 48.807 36.318,48.703 36.500,48.790 36.500 C 48.983 36.500,49.582 35.860,49.483 35.760 C 49.444 35.721,49.236 35.872,49.022 36.095 M17.667 42.250 C 17.781 42.387,17.949 42.500,18.041 42.500 C 18.134 42.500,18.116 42.389,18.000 42.250 C 17.886 42.112,17.718 42.000,17.626 42.000 C 17.533 42.000,17.551 42.111,17.667 42.250 M101.500 43.000 C 101.500 43.444,101.444 43.500,101.000 43.500 L 100.500 43.500 100.500 46.000 L 100.500 48.500 101.000 48.500 C 101.486 48.500,101.500 48.522,101.500 49.300 C 101.500 50.146,101.707 50.500,102.200 50.500 C 102.422 50.500,102.500 50.630,102.500 51.000 C 102.500 51.443,102.556 51.500,102.992 51.500 C 103.473 51.500,103.484 51.520,103.533 52.458 C 103.581 53.366,103.608 53.419,104.042 53.469 C 104.426 53.514,104.500 53.602,104.500 54.011 C 104.500 54.443,104.558 54.500,105.000 54.500 L 105.500 54.500 105.500 55.500 L 105.500 56.500 106.000 56.500 C 106.480 56.500,106.500 56.529,106.500 57.238 C 106.500 57.992,106.807 58.500,107.262 58.500 C 107.415 58.500,107.500 58.678,107.500 59.000 C 107.500 59.443,107.556 59.500,107.992 59.500 C 108.473 59.500,108.484 59.520,108.533 60.458 C 108.581 61.366,108.608 61.419,109.042 61.469 C 109.426 61.514,109.500 61.602,109.500 62.011 C 109.500 62.443,109.558 62.500,110.000 62.500 L 110.500 62.500 110.500 63.500 L 110.500 64.500 111.000 64.500 C 111.480 64.500,111.500 64.529,111.500 65.238 C 111.500 65.992,111.807 66.500,112.262 66.500 C 112.415 66.500,112.500 66.678,112.500 67.000 C 112.500 67.444,112.556 67.500,112.998 67.500 L 113.496 67.500 113.540 74.458 L 113.583 81.417 114.034 81.469 C 114.457 81.518,114.487 81.577,114.534 82.469 L 114.583 83.417 117.042 83.463 L 119.500 83.509 119.500 83.004 C 119.500 82.555,119.555 82.500,120.000 82.500 L 120.500 82.500 120.500 75.500 L 120.500 68.500 121.000 68.500 C 121.445 68.500,121.500 68.445,121.500 67.996 C 121.500 67.619,121.600 67.454,121.894 67.342 C 122.302 67.187,122.494 66.747,122.498 65.958 C 122.500 65.561,122.566 65.500,123.000 65.500 L 123.500 65.500 123.500 64.500 L 123.500 63.500 124.000 63.500 C 124.442 63.500,124.500 63.443,124.500 63.011 C 124.500 62.602,124.574 62.514,124.958 62.469 C 125.392 62.419,125.419 62.366,125.467 61.458 C 125.516 60.520,125.527 60.500,126.008 60.500 C 126.444 60.500,126.500 60.443,126.500 60.000 C 126.500 59.630,126.578 59.500,126.800 59.500 C 127.293 59.500,127.500 59.146,127.500 58.300 C 127.500 57.522,127.514 57.500,128.000 57.500 C 128.457 57.500,128.500 57.452,128.500 56.936 C 128.500 56.514,128.583 56.350,128.831 56.286 C 129.188 56.192,129.500 55.554,129.500 54.917 C 129.500 54.610,129.602 54.510,129.958 54.469 C 130.392 54.419,130.419 54.366,130.467 53.458 C 130.516 52.520,130.527 52.500,131.008 52.500 C 131.444 52.500,131.500 52.443,131.500 52.000 C 131.500 51.630,131.578 51.500,131.800 51.500 C 132.293 51.500,132.500 51.146,132.500 50.300 C 132.500 49.522,132.514 49.500,133.000 49.500 L 133.500 49.500 133.500 48.500 L 133.500 47.500 134.000 47.500 L 134.500 47.500 134.500 45.500 L 134.500 43.500 134.000 43.500 C 133.556 43.500,133.500 43.444,133.500 43.000 L 133.500 42.500 131.540 42.500 C 129.666 42.500,129.572 42.517,129.415 42.875 C 129.324 43.081,129.081 43.324,128.875 43.415 C 128.616 43.528,128.500 43.722,128.500 44.040 C 128.500 44.440,128.435 44.500,128.000 44.500 C 127.556 44.500,127.500 44.556,127.500 45.000 C 127.500 45.322,127.415 45.500,127.262 45.500 C 126.807 45.500,126.500 46.008,126.500 46.762 C 126.500 47.471,126.480 47.500,126.000 47.500 C 125.556 47.500,125.500 47.556,125.500 47.997 C 125.500 48.383,125.410 48.516,125.099 48.594 C 124.672 48.701,124.506 49.082,124.502 49.958 C 124.500 50.449,124.453 50.500,124.000 50.500 L 123.500 50.500 123.500 51.500 L 123.500 52.500 123.000 52.500 C 122.558 52.500,122.500 52.557,122.500 52.989 C 122.500 53.398,122.426 53.486,122.042 53.531 C 121.608 53.581,121.581 53.634,121.533 54.542 C 121.484 55.480,121.473 55.500,120.992 55.500 C 120.557 55.500,120.500 55.558,120.500 55.997 C 120.500 56.383,120.410 56.516,120.099 56.594 C 119.674 56.701,119.506 57.082,119.502 57.947 C 119.500 58.402,119.434 58.485,119.042 58.531 C 118.634 58.578,118.578 58.659,118.533 59.274 C 118.462 60.249,118.060 60.567,116.958 60.520 C 116.589 60.504,116.500 60.421,116.500 60.094 C 116.500 59.447,116.191 58.808,115.831 58.714 C 115.583 58.650,115.500 58.486,115.500 58.064 C 115.500 57.551,115.456 57.500,115.008 57.500 C 114.527 57.500,114.516 57.480,114.467 56.542 C 114.419 55.634,114.392 55.581,113.958 55.531 C 113.574 55.486,113.500 55.398,113.500 54.989 C 113.500 54.559,113.441 54.500,113.008 54.500 C 112.527 54.500,112.516 54.480,112.467 53.542 C 112.419 52.634,112.392 52.581,111.958 52.531 C 111.577 52.487,111.500 52.397,111.500 52.000 C 111.500 51.283,111.234 50.723,110.846 50.622 C 110.590 50.555,110.500 50.397,110.500 50.016 C 110.500 49.554,110.448 49.500,110.000 49.500 C 109.514 49.500,109.500 49.478,109.500 48.700 C 109.500 47.854,109.293 47.500,108.800 47.500 C 108.578 47.500,108.500 47.370,108.500 47.000 C 108.500 46.557,108.444 46.500,108.008 46.500 C 107.527 46.500,107.516 46.480,107.467 45.542 C 107.419 44.634,107.392 44.581,106.958 44.531 C 106.574 44.486,106.500 44.398,106.500 43.989 C 106.500 43.557,106.442 43.500,106.000 43.500 C 105.556 43.500,105.500 43.444,105.500 43.000 L 105.500 42.500 103.500 42.500 L 101.500 42.500 101.500 43.000 M154.975 42.612 C 154.667 42.693,154.506 43.154,154.502 43.958 C 154.501 44.368,154.427 44.500,154.200 44.500 C 153.739 44.500,153.500 44.841,153.500 45.500 C 153.500 46.159,153.739 46.500,154.200 46.500 C 154.456 46.500,154.500 46.648,154.500 47.500 L 154.500 48.500 161.000 48.500 L 167.500 48.500 167.500 65.500 L 167.500 82.500 168.000 82.500 C 168.444 82.500,168.500 82.556,168.500 83.000 L 168.500 83.500 171.000 83.500 L 173.500 83.500 173.500 83.011 C 173.500 82.602,173.574 82.514,173.958 82.469 L 174.417 82.417 174.459 65.458 L 174.502 48.500 180.739 48.500 C 188.235 48.500,187.500 48.793,187.500 45.805 L 187.500 43.633 186.933 43.067 L 186.367 42.500 170.808 42.519 C 162.251 42.530,155.126 42.571,154.975 42.612 M238.227 42.695 C 237.816 42.894,237.500 43.501,237.500 44.091 C 237.500 44.334,237.404 44.500,237.262 44.500 C 236.481 44.500,236.500 44.156,236.500 58.000 C 236.500 71.844,236.481 71.500,237.262 71.500 C 237.454 71.500,237.500 71.851,237.500 73.300 C 237.500 75.157,237.609 75.500,238.200 75.500 C 238.447 75.500,238.500 75.641,238.500 76.300 C 238.500 77.146,238.707 77.500,239.200 77.500 C 239.422 77.500,239.500 77.630,239.500 78.000 C 239.500 78.444,239.556 78.500,240.000 78.500 C 240.444 78.500,240.500 78.556,240.500 79.000 C 240.500 79.444,240.556 79.500,241.000 79.500 C 241.444 79.500,241.500 79.556,241.500 80.000 C 241.500 80.444,241.556 80.500,242.000 80.500 C 242.444 80.500,242.500 80.556,242.500 81.000 C 242.500 81.444,242.556 81.500,242.997 81.500 C 243.383 81.500,243.516 81.590,243.594 81.901 C 243.714 82.380,244.074 82.495,245.458 82.498 L 246.500 82.500 246.500 83.000 L 246.500 83.500 252.300 83.500 C 258.317 83.500,258.500 83.480,258.500 82.808 C 258.500 82.570,258.676 82.507,259.458 82.467 C 260.366 82.419,260.419 82.392,260.469 81.958 C 260.512 81.591,260.607 81.500,260.951 81.500 C 261.211 81.500,261.569 81.302,261.858 81.000 C 262.121 80.725,262.508 80.500,262.718 80.500 C 263.202 80.500,263.500 80.205,263.500 79.728 C 263.500 79.512,263.630 79.315,263.808 79.258 C 264.167 79.144,264.500 78.495,264.500 77.909 C 264.500 77.566,264.580 77.500,265.000 77.500 L 265.500 77.500 265.500 76.500 L 265.500 75.500 266.000 75.500 L 266.500 75.500 266.500 74.428 C 266.500 73.450,266.532 73.352,266.868 73.303 C 267.411 73.225,267.465 72.816,267.483 68.658 C 267.501 64.759,267.458 64.500,266.800 64.500 C 266.537 64.500,266.500 64.341,266.500 63.200 C 266.500 61.878,266.351 61.500,265.830 61.500 C 265.636 61.500,265.517 61.256,265.405 60.625 C 265.278 59.910,265.183 59.740,264.885 59.698 C 264.610 59.659,264.507 59.515,264.468 59.115 C 264.425 58.674,264.338 58.574,263.958 58.531 C 263.574 58.486,263.500 58.398,263.500 57.989 C 263.500 57.559,263.441 57.500,263.011 57.500 C 262.602 57.500,262.514 57.426,262.469 57.042 C 262.419 56.608,262.366 56.581,261.458 56.533 C 260.520 56.484,260.500 56.473,260.500 55.992 C 260.500 55.559,260.441 55.500,260.011 55.500 C 259.602 55.500,259.514 55.426,259.469 55.042 C 259.417 54.585,259.412 54.583,257.958 54.535 C 256.695 54.493,256.500 54.448,256.500 54.194 C 256.500 53.548,256.221 53.500,252.500 53.500 C 248.772 53.500,248.500 53.548,248.500 54.200 C 248.500 54.456,248.352 54.500,247.500 54.500 L 246.500 54.500 246.500 55.000 L 246.500 55.500 245.500 55.500 L 244.500 55.500 244.500 56.000 C 244.500 56.444,244.444 56.500,244.000 56.500 L 243.500 56.500 243.500 50.000 L 243.500 43.500 243.000 43.500 C 242.556 43.500,242.500 43.444,242.500 43.000 L 242.500 42.500 240.542 42.511 C 239.465 42.517,238.423 42.600,238.227 42.695 M306.500 44.000 C 306.500 44.444,306.444 44.500,306.000 44.500 C 305.501 44.500,305.500 44.501,305.500 45.489 C 305.500 46.444,305.484 46.480,305.042 46.531 C 304.604 46.581,304.583 46.624,304.583 47.500 C 304.583 48.376,304.604 48.419,305.042 48.469 C 305.482 48.520,305.500 48.560,305.500 49.472 C 305.500 50.296,305.549 50.443,305.875 50.585 C 306.081 50.676,306.324 50.919,306.415 51.125 C 306.574 51.490,306.648 51.500,309.040 51.500 L 311.500 51.500 311.500 51.000 C 311.500 50.556,311.556 50.500,312.000 50.500 C 312.442 50.500,312.500 50.443,312.500 50.011 C 312.500 49.602,312.574 49.514,312.958 49.469 L 313.417 49.417 313.417 47.500 L 313.417 45.583 312.958 45.531 C 312.574 45.486,312.500 45.398,312.500 44.989 C 312.500 44.557,312.442 44.500,312.000 44.500 C 311.556 44.500,311.500 44.444,311.500 44.000 L 311.500 43.500 309.000 43.500 L 306.500 43.500 306.500 44.000 M39.500 53.917 C 39.500 54.146,39.579 54.333,39.677 54.333 C 39.774 54.333,39.807 54.259,39.751 54.169 C 39.691 54.071,39.766 54.049,39.937 54.114 C 40.160 54.200,40.200 54.160,40.114 53.937 C 40.049 53.766,40.071 53.691,40.169 53.751 C 40.259 53.807,40.333 53.774,40.333 53.677 C 40.333 53.579,40.146 53.500,39.917 53.500 C 39.583 53.500,39.500 53.583,39.500 53.917 M49.000 53.626 C 49.000 53.718,49.112 53.886,49.250 54.000 C 49.389 54.116,49.500 54.134,49.500 54.041 C 49.500 53.949,49.387 53.781,49.250 53.667 C 49.111 53.551,49.000 53.533,49.000 53.626 M141.614 53.608 C 141.552 53.671,141.500 53.897,141.500 54.111 C 141.500 54.490,141.460 54.500,140.000 54.500 L 138.500 54.500 138.500 55.000 L 138.500 55.500 137.500 55.500 L 136.500 55.500 136.500 56.000 C 136.500 56.486,136.478 56.500,135.700 56.500 C 134.860 56.500,134.500 56.707,134.500 57.189 C 134.500 57.380,134.345 57.496,134.042 57.531 C 133.682 57.572,133.572 57.682,133.531 58.041 C 133.494 58.363,133.359 58.529,133.077 58.600 C 132.775 58.676,132.648 58.851,132.567 59.309 C 132.448 59.974,132.075 60.500,131.724 60.500 C 131.579 60.500,131.500 60.706,131.500 61.082 C 131.500 61.511,131.369 61.789,131.000 62.142 C 130.520 62.600,130.500 62.677,130.500 64.060 C 130.500 65.197,130.450 65.500,130.262 65.500 C 129.596 65.500,129.500 65.918,129.502 68.804 C 129.505 71.984,129.551 72.268,130.093 72.404 C 130.465 72.498,130.490 72.585,130.535 73.960 C 130.583 75.405,130.587 75.417,131.034 75.469 C 131.457 75.518,131.487 75.577,131.534 76.469 C 131.581 77.365,131.608 77.420,132.042 77.469 C 132.409 77.512,132.500 77.607,132.500 77.951 C 132.500 78.208,132.695 78.567,132.984 78.843 C 133.250 79.097,133.518 79.534,133.579 79.814 C 133.672 80.239,133.792 80.341,134.304 80.432 C 134.973 80.552,135.500 80.924,135.500 81.276 C 135.500 81.413,135.690 81.500,135.989 81.500 C 136.398 81.500,136.486 81.574,136.531 81.958 C 136.583 82.415,136.588 82.417,138.042 82.465 L 139.500 82.513 139.500 83.006 L 139.500 83.500 145.300 83.500 C 151.317 83.500,151.500 83.480,151.500 82.808 C 151.500 82.570,151.676 82.507,152.458 82.467 C 153.366 82.419,153.419 82.392,153.469 81.958 C 153.514 81.574,153.602 81.500,154.011 81.500 C 154.438 81.500,154.500 81.440,154.500 81.021 C 154.500 80.568,154.545 80.538,155.337 80.462 C 156.365 80.363,156.363 80.365,156.462 79.337 C 156.538 78.545,156.568 78.500,157.021 78.500 C 157.442 78.500,157.500 78.440,157.500 78.000 C 157.500 77.556,157.556 77.500,158.000 77.500 L 158.500 77.500 158.500 76.500 L 158.500 75.500 159.000 75.500 L 159.500 75.500 159.500 74.011 L 159.500 72.522 159.958 72.469 L 160.417 72.417 160.417 69.000 L 160.417 65.583 159.958 65.531 L 159.500 65.478 159.500 63.989 L 159.500 62.500 159.000 62.500 L 158.500 62.500 158.500 61.500 C 158.500 60.514,158.493 60.500,158.030 60.500 C 157.595 60.500,157.550 60.437,157.405 59.625 C 157.278 58.910,157.183 58.740,156.885 58.698 C 156.610 58.659,156.507 58.515,156.468 58.115 C 156.417 57.592,156.402 57.583,155.458 57.533 C 154.520 57.484,154.500 57.473,154.500 56.992 C 154.500 56.556,154.443 56.500,154.000 56.500 C 153.556 56.500,153.500 56.444,153.500 56.000 C 153.500 55.542,153.452 55.500,152.928 55.500 C 152.518 55.500,152.328 55.413,152.258 55.192 C 152.102 54.702,151.421 54.500,149.920 54.500 L 148.522 54.500 148.469 54.042 L 148.417 53.583 145.073 53.538 C 143.234 53.514,141.677 53.545,141.614 53.608 M185.619 53.604 C 185.553 53.669,185.500 53.897,185.500 54.111 C 185.500 54.475,185.437 54.500,184.499 54.500 L 183.498 54.500 183.541 68.958 L 183.583 83.417 186.042 83.463 L 188.500 83.509 188.500 83.004 C 188.500 82.555,188.555 82.500,189.000 82.500 L 189.500 82.500 189.500 73.500 L 189.500 64.500 190.000 64.500 L 190.500 64.500 190.500 63.500 L 190.500 62.500 191.000 62.500 C 191.443 62.500,191.500 62.444,191.500 62.008 C 191.500 61.527,191.520 61.516,192.458 61.467 C 193.364 61.419,193.420 61.392,193.469 60.961 L 193.522 60.506 197.469 60.461 L 201.417 60.417 201.469 59.958 C 201.514 59.572,201.600 59.500,202.024 59.500 L 202.525 59.500 202.471 57.180 C 202.409 54.542,202.454 54.645,201.337 54.538 C 200.698 54.477,200.500 54.392,200.500 54.179 C 200.500 53.556,200.193 53.500,196.800 53.500 L 193.500 53.500 193.500 53.994 L 193.500 54.487 192.042 54.535 C 190.588 54.583,190.583 54.585,190.531 55.042 C 190.448 55.760,189.500 55.722,189.500 55.000 C 189.500 54.501,189.499 54.500,188.511 54.500 C 187.556 54.500,187.520 54.484,187.469 54.042 C 187.417 53.583,185.979 53.243,185.619 53.604 M213.611 53.611 C 213.550 53.672,213.500 53.897,213.500 54.111 C 213.500 54.490,213.460 54.500,212.000 54.500 L 210.500 54.500 210.500 54.992 C 210.500 55.473,210.480 55.484,209.542 55.533 C 208.634 55.581,208.581 55.608,208.531 56.042 C 208.486 56.426,208.398 56.500,207.989 56.500 C 207.557 56.500,207.500 56.558,207.500 57.000 C 207.500 57.444,207.444 57.500,207.000 57.500 C 206.556 57.500,206.500 57.556,206.500 58.000 C 206.500 58.444,206.444 58.500,206.000 58.500 C 205.556 58.500,205.500 58.556,205.500 59.000 C 205.500 59.444,205.444 59.500,205.000 59.500 C 204.555 59.500,204.500 59.555,204.500 60.004 C 204.500 60.381,204.400 60.546,204.106 60.658 C 203.685 60.818,203.506 61.253,203.502 62.124 C 203.501 62.505,203.353 62.805,202.998 63.144 L 202.495 63.624 202.539 69.020 L 202.583 74.417 203.042 74.469 C 203.478 74.520,203.500 74.564,203.500 75.420 C 203.500 76.446,203.750 77.118,204.182 77.255 C 204.369 77.314,204.499 77.548,204.532 77.883 C 204.575 78.326,204.661 78.426,205.042 78.469 C 205.426 78.514,205.500 78.602,205.500 79.011 C 205.500 79.443,205.558 79.500,206.000 79.500 C 206.444 79.500,206.500 79.556,206.500 80.000 C 206.500 80.444,206.556 80.500,207.000 80.500 C 207.444 80.500,207.500 80.556,207.500 81.000 C 207.500 81.448,207.554 81.500,208.016 81.500 C 208.397 81.500,208.555 81.590,208.622 81.846 C 208.742 82.304,209.307 82.500,210.511 82.500 C 211.499 82.500,211.500 82.501,211.500 83.000 L 211.500 83.500 217.000 83.500 L 222.500 83.500 222.500 83.000 C 222.500 82.504,222.508 82.500,223.458 82.483 C 224.791 82.460,225.219 82.311,225.345 81.827 C 225.448 81.428,225.453 81.431,225.517 81.917 C 225.570 82.318,225.674 82.427,226.042 82.469 C 226.426 82.514,226.500 82.602,226.500 83.011 L 226.500 83.500 229.000 83.500 L 231.500 83.500 231.500 83.000 C 231.500 82.556,231.556 82.500,232.000 82.500 L 232.500 82.500 232.500 73.200 C 232.500 63.503,232.500 63.500,231.800 63.500 C 231.544 63.500,231.500 63.352,231.500 62.500 C 231.500 61.504,231.498 61.500,231.008 61.500 C 230.527 61.500,230.516 61.480,230.467 60.542 C 230.419 59.634,230.392 59.581,229.958 59.531 C 229.574 59.486,229.500 59.398,229.500 58.989 C 229.500 58.557,229.442 58.500,229.000 58.500 C 228.556 58.500,228.500 58.444,228.500 58.000 C 228.500 57.556,228.444 57.500,228.000 57.500 C 227.556 57.500,227.500 57.444,227.500 57.000 L 227.500 56.500 226.500 56.500 L 225.500 56.500 225.500 56.000 C 225.500 55.556,225.444 55.500,225.000 55.500 C 224.630 55.500,224.500 55.422,224.500 55.200 C 224.500 54.648,224.142 54.500,222.803 54.500 C 221.572 54.500,221.501 54.480,221.406 54.099 C 221.350 53.879,221.143 53.655,220.944 53.601 C 220.440 53.466,213.747 53.475,213.611 53.611 M281.700 53.700 C 281.590 53.810,281.500 54.032,281.500 54.194 C 281.500 54.448,281.305 54.493,280.042 54.535 C 278.588 54.583,278.583 54.585,278.531 55.042 C 278.481 55.470,278.426 55.500,277.689 55.500 C 276.854 55.500,276.500 55.708,276.500 56.200 C 276.500 56.422,276.370 56.500,276.000 56.500 C 275.556 56.500,275.500 56.556,275.500 57.000 C 275.500 57.444,275.444 57.500,275.000 57.500 C 274.556 57.500,274.500 57.556,274.500 58.000 C 274.500 58.444,274.444 58.500,274.000 58.500 C 273.558 58.500,273.500 58.557,273.500 58.989 C 273.500 59.398,273.426 59.486,273.042 59.531 C 272.638 59.577,272.577 59.663,272.529 60.250 C 272.473 60.941,272.113 61.500,271.724 61.500 C 271.561 61.500,271.500 61.773,271.500 62.500 C 271.500 63.256,271.442 63.500,271.262 63.500 C 270.540 63.500,270.500 63.782,270.502 68.804 C 270.505 74.070,270.525 74.262,271.091 74.404 C 271.438 74.491,271.489 74.613,271.533 75.459 C 271.580 76.361,271.609 76.420,272.034 76.469 C 272.457 76.518,272.487 76.577,272.534 77.469 C 272.581 78.365,272.608 78.420,273.042 78.469 C 273.426 78.514,273.500 78.602,273.500 79.011 C 273.500 79.443,273.558 79.500,274.000 79.500 C 274.444 79.500,274.500 79.556,274.500 80.000 C 274.500 80.442,274.557 80.500,274.989 80.500 C 275.398 80.500,275.486 80.574,275.531 80.958 C 275.574 81.338,275.674 81.425,276.115 81.468 C 276.511 81.506,276.659 81.611,276.698 81.878 C 276.760 82.308,277.226 82.461,278.542 82.483 C 279.492 82.500,279.500 82.504,279.500 83.000 L 279.500 83.500 284.958 83.483 C 290.856 83.465,291.222 83.430,291.303 82.868 C 291.350 82.546,291.458 82.500,292.166 82.500 C 293.013 82.500,293.491 82.215,293.511 81.696 C 293.518 81.504,293.570 81.538,293.678 81.807 C 293.764 82.022,293.980 82.236,294.158 82.283 C 294.375 82.340,294.498 82.539,294.532 82.892 L 294.583 83.417 297.042 83.463 L 299.500 83.509 299.500 83.004 C 299.500 82.555,299.554 82.500,300.001 82.500 L 300.503 82.500 300.460 73.042 L 300.417 63.583 299.958 63.531 C 299.516 63.480,299.500 63.444,299.500 62.489 C 299.500 61.505,299.498 61.500,299.008 61.500 C 298.527 61.500,298.516 61.480,298.467 60.542 C 298.419 59.634,298.392 59.581,297.958 59.531 C 297.574 59.486,297.500 59.398,297.500 58.989 C 297.500 58.557,297.442 58.500,297.000 58.500 C 296.556 58.500,296.500 58.444,296.500 58.000 C 296.500 57.556,296.444 57.500,296.000 57.500 C 295.556 57.500,295.500 57.444,295.500 57.000 C 295.500 56.556,295.444 56.500,295.000 56.500 C 294.630 56.500,294.500 56.422,294.500 56.200 C 294.500 55.708,294.146 55.500,293.311 55.500 C 292.574 55.500,292.519 55.470,292.469 55.042 C 292.417 54.585,292.412 54.583,290.958 54.535 C 289.695 54.493,289.500 54.448,289.500 54.194 C 289.500 53.548,289.221 53.500,285.500 53.500 C 282.922 53.500,281.843 53.557,281.700 53.700 M308.116 53.617 C 307.950 53.660,307.746 53.876,307.661 54.097 C 307.546 54.401,307.384 54.500,307.004 54.500 C 306.558 54.500,306.500 54.556,306.500 54.989 C 306.500 55.398,306.426 55.486,306.042 55.531 L 305.583 55.583 305.541 70.046 L 305.498 84.509 305.105 84.658 C 304.698 84.813,304.506 85.253,304.502 86.042 C 304.500 86.439,304.434 86.500,304.000 86.500 C 303.557 86.500,303.500 86.556,303.500 86.992 C 303.500 87.473,303.480 87.484,302.542 87.533 C 301.634 87.581,301.581 87.608,301.531 88.042 L 301.478 88.500 299.489 88.500 L 297.500 88.500 297.500 89.000 C 297.500 89.444,297.444 89.500,297.000 89.500 C 296.555 89.500,296.500 89.555,296.500 90.004 C 296.500 90.381,296.400 90.546,296.104 90.659 C 295.388 90.931,295.437 92.583,296.176 93.044 C 296.404 93.187,296.500 93.433,296.500 93.873 C 296.500 94.455,296.535 94.500,296.989 94.500 C 297.398 94.500,297.486 94.574,297.531 94.958 L 297.583 95.417 300.042 95.463 L 302.500 95.509 302.500 95.004 L 302.500 94.500 303.958 94.483 C 305.782 94.463,306.234 94.344,306.303 93.868 C 306.346 93.570,306.466 93.500,306.928 93.500 C 307.452 93.500,307.500 93.458,307.500 93.000 C 307.500 92.556,307.556 92.500,308.000 92.500 C 308.444 92.500,308.500 92.444,308.500 92.000 C 308.500 91.556,308.556 91.500,309.000 91.500 C 309.444 91.500,309.500 91.444,309.500 91.000 C 309.500 90.556,309.556 90.500,310.000 90.500 C 310.444 90.500,310.500 90.444,310.500 90.000 C 310.500 89.630,310.578 89.500,310.800 89.500 C 311.353 89.500,311.500 89.142,311.500 87.800 L 311.500 86.500 312.000 86.500 L 312.500 86.500 312.500 71.000 L 312.500 55.500 312.000 55.500 C 311.556 55.500,311.500 55.444,311.500 55.000 C 311.500 54.556,311.444 54.500,311.000 54.500 C 310.630 54.500,310.500 54.422,310.500 54.200 C 310.500 53.578,309.351 53.297,308.116 53.617 M327.500 53.997 L 327.500 54.500 326.042 54.502 C 324.242 54.505,323.849 54.605,323.658 55.106 C 323.546 55.400,323.381 55.500,323.004 55.500 C 322.557 55.500,322.500 55.556,322.500 55.992 C 322.500 56.473,322.480 56.484,321.542 56.533 C 320.640 56.580,320.580 56.610,320.532 57.032 C 320.492 57.378,320.378 57.492,320.032 57.532 C 319.685 57.572,319.572 57.685,319.532 58.032 C 319.492 58.378,319.378 58.492,319.032 58.532 C 318.639 58.577,318.577 58.667,318.529 59.250 C 318.473 59.941,318.113 60.500,317.724 60.500 C 317.561 60.500,317.500 60.773,317.500 61.500 L 317.500 62.500 317.000 62.500 L 316.500 62.500 316.500 63.997 C 316.500 65.450,316.488 65.497,316.088 65.597 C 315.543 65.734,315.472 66.179,315.534 69.083 L 315.583 71.417 316.042 71.469 L 316.500 71.522 316.500 73.511 L 316.500 75.500 317.000 75.500 L 317.500 75.500 317.500 76.500 C 317.500 77.486,317.507 77.500,317.970 77.500 C 318.405 77.500,318.450 77.563,318.595 78.375 C 318.723 79.098,318.815 79.259,319.125 79.303 C 319.386 79.340,319.500 79.470,319.500 79.728 C 319.500 80.202,319.798 80.500,320.272 80.500 C 320.530 80.500,320.660 80.614,320.697 80.875 C 320.741 81.185,320.902 81.277,321.625 81.405 C 322.437 81.550,322.500 81.595,322.500 82.030 C 322.500 82.493,322.514 82.500,323.500 82.500 C 324.352 82.500,324.500 82.544,324.500 82.800 C 324.500 83.483,324.660 83.500,330.938 83.500 C 337.298 83.500,337.500 83.477,337.500 82.746 C 337.500 82.584,337.779 82.502,338.458 82.467 C 339.366 82.419,339.419 82.392,339.469 81.958 C 339.514 81.574,339.602 81.500,340.011 81.500 C 340.443 81.500,340.500 81.442,340.500 81.000 C 340.500 80.556,340.556 80.500,341.000 80.500 C 341.444 80.500,341.500 80.444,341.500 80.000 C 341.500 79.556,341.556 79.500,342.000 79.500 C 342.444 79.500,342.500 79.444,342.500 79.000 C 342.500 78.556,342.556 78.500,343.000 78.500 C 343.442 78.500,343.500 78.443,343.500 78.011 C 343.500 77.602,343.574 77.514,343.958 77.469 C 344.392 77.420,344.419 77.365,344.466 76.469 C 344.513 75.577,344.543 75.518,344.966 75.469 L 345.417 75.417 345.463 72.969 L 345.509 70.521 345.963 70.469 L 346.417 70.417 346.417 68.500 L 346.417 66.583 345.958 66.531 L 345.500 66.478 345.500 64.489 L 345.500 62.500 345.000 62.500 L 344.500 62.500 344.500 61.500 L 344.500 60.500 344.000 60.500 C 343.573 60.500,343.500 60.437,343.500 60.067 C 343.500 59.487,342.513 58.500,341.933 58.500 C 341.578 58.500,341.500 58.422,341.500 58.067 C 341.500 57.487,340.513 56.500,339.933 56.500 C 339.563 56.500,339.500 56.427,339.500 56.000 L 339.500 55.500 338.500 55.500 L 337.500 55.500 337.500 55.000 L 337.500 54.500 336.011 54.500 L 334.522 54.500 334.469 54.042 L 334.417 53.583 330.958 53.538 L 327.500 53.493 327.500 53.997 M23.000 56.801 C 23.000 57.023,23.489 57.600,23.495 57.385 C 23.498 57.276,23.424 57.139,23.331 57.082 C 23.237 57.024,23.204 56.907,23.257 56.822 C 23.310 56.736,23.274 56.667,23.177 56.667 C 23.079 56.667,23.000 56.727,23.000 56.801 M7.689 59.171 C 7.289 59.533,6.877 59.781,6.772 59.721 C 6.668 59.662,6.639 59.675,6.707 59.750 C 6.775 59.825,6.745 59.988,6.641 60.114 C 6.247 60.589,6.660 60.504,7.129 60.013 C 7.399 59.731,7.718 59.500,7.837 59.500 C 7.957 59.500,8.006 59.451,7.946 59.390 C 7.795 59.240,8.169 58.815,8.352 58.928 C 8.433 58.979,8.500 58.903,8.500 58.760 C 8.500 58.424,8.535 58.407,7.689 59.171 M23.500 58.581 C 23.500 58.678,24.330 59.500,24.428 59.500 C 24.591 59.500,23.971 58.691,23.740 58.603 C 23.608 58.552,23.500 58.542,23.500 58.581 M56.500 59.167 C 56.500 59.389,56.611 59.500,56.833 59.500 C 57.211 59.500,57.260 59.327,56.967 59.033 C 56.673 58.740,56.500 58.789,56.500 59.167 M40.044 59.881 C 40.065 59.992,39.992 60.065,39.881 60.044 C 39.762 60.020,39.719 60.109,39.777 60.259 C 39.863 60.484,39.912 60.480,40.187 60.231 C 40.564 59.891,40.563 59.893,40.252 59.774 C 40.109 59.719,40.021 59.764,40.044 59.881 M148.500 61.000 L 148.500 61.500 149.500 61.500 L 150.500 61.500 150.500 62.000 C 150.500 62.444,150.556 62.500,151.000 62.500 C 151.453 62.500,151.500 62.551,151.502 63.042 C 151.506 63.918,151.672 64.299,152.099 64.406 C 152.455 64.495,152.500 64.599,152.500 65.335 C 152.500 66.046,152.571 66.228,153.000 66.610 C 153.497 67.052,153.500 67.067,153.500 68.843 C 153.500 70.600,153.491 70.641,153.000 71.167 C 152.572 71.624,152.500 71.832,152.500 72.601 C 152.500 73.489,152.494 73.500,152.000 73.500 C 151.556 73.500,151.500 73.556,151.500 74.000 C 151.500 74.370,151.422 74.500,151.200 74.500 C 150.820 74.500,150.500 74.815,150.500 75.189 C 150.500 75.380,150.345 75.496,150.042 75.531 C 149.682 75.572,149.572 75.682,149.531 76.042 C 149.481 76.470,149.426 76.500,148.689 76.500 C 147.854 76.500,147.500 76.708,147.500 77.200 C 147.500 77.475,147.297 77.500,145.011 77.500 L 142.522 77.500 142.469 77.042 C 142.419 76.608,142.366 76.581,141.458 76.533 C 140.520 76.484,140.500 76.473,140.500 75.992 C 140.500 75.559,140.441 75.500,140.011 75.500 C 139.602 75.500,139.514 75.426,139.469 75.042 C 139.428 74.682,139.318 74.572,138.958 74.531 C 138.574 74.486,138.500 74.398,138.500 73.989 C 138.500 73.557,138.442 73.500,138.000 73.500 L 137.500 73.500 137.500 72.500 C 137.500 71.847,137.432 71.500,137.305 71.500 C 136.643 71.500,136.500 71.007,136.500 68.735 L 136.500 66.522 136.958 66.469 C 137.392 66.420,137.419 66.365,137.466 65.469 C 137.513 64.577,137.543 64.518,137.966 64.469 C 138.337 64.426,138.426 64.323,138.468 63.885 C 138.506 63.489,138.611 63.341,138.878 63.302 C 139.099 63.270,139.273 63.092,139.333 62.839 C 139.393 62.582,139.582 62.393,139.839 62.333 C 140.097 62.272,140.270 62.099,140.303 61.868 C 140.346 61.570,140.466 61.500,140.928 61.500 C 141.452 61.500,141.500 61.458,141.500 61.000 L 141.500 60.500 145.000 60.500 L 148.500 60.500 148.500 61.000 M220.500 60.800 C 220.500 61.293,220.854 61.500,221.700 61.500 C 222.478 61.500,222.500 61.514,222.500 62.000 C 222.500 62.444,222.556 62.500,223.000 62.500 C 223.444 62.500,223.500 62.556,223.500 63.000 C 223.500 63.308,223.586 63.500,223.724 63.500 C 224.113 63.500,224.473 64.059,224.529 64.750 C 224.577 65.337,224.638 65.423,225.042 65.469 L 225.500 65.522 225.500 68.593 L 225.500 71.664 225.000 72.142 C 224.657 72.470,224.500 72.780,224.500 73.131 C 224.500 73.536,224.421 73.655,224.125 73.697 C 223.815 73.741,223.723 73.902,223.595 74.625 C 223.450 75.437,223.405 75.500,222.970 75.500 C 222.559 75.500,222.500 75.563,222.500 76.000 L 222.500 76.500 221.500 76.500 L 220.500 76.500 220.500 77.000 L 220.500 77.500 217.500 77.500 L 214.500 77.500 214.500 77.000 L 214.500 76.500 213.500 76.500 L 212.500 76.500 212.500 76.000 C 212.500 75.556,212.444 75.500,212.000 75.500 C 211.556 75.500,211.500 75.444,211.500 75.000 C 211.500 74.556,211.444 74.500,211.000 74.500 C 210.514 74.500,210.500 74.478,210.500 73.700 C 210.500 72.854,210.293 72.500,209.800 72.500 C 209.521 72.500,209.500 72.259,209.500 69.003 L 209.500 65.506 209.901 65.406 C 210.328 65.299,210.494 64.918,210.498 64.042 C 210.500 63.551,210.547 63.500,211.000 63.500 C 211.444 63.500,211.500 63.444,211.500 63.000 C 211.500 62.556,211.556 62.500,212.000 62.500 C 212.444 62.500,212.500 62.444,212.500 62.000 C 212.500 61.556,212.556 61.500,213.000 61.500 C 213.444 61.500,213.500 61.444,213.500 61.000 L 213.500 60.500 217.000 60.500 C 220.259 60.500,220.500 60.521,220.500 60.800 M255.531 60.958 C 255.581 61.392,255.634 61.419,256.542 61.467 C 257.480 61.516,257.500 61.527,257.500 62.008 C 257.500 62.436,257.561 62.500,257.970 62.500 C 258.405 62.500,258.450 62.563,258.595 63.375 C 258.723 64.098,258.815 64.259,259.125 64.303 C 259.436 64.347,259.500 64.462,259.502 64.970 C 259.506 65.919,259.663 66.296,260.099 66.406 L 260.500 66.506 260.500 69.003 C 260.500 71.296,260.476 71.500,260.200 71.500 C 259.708 71.500,259.500 71.854,259.500 72.689 C 259.500 73.426,259.470 73.481,259.042 73.531 C 258.679 73.572,258.572 73.681,258.530 74.050 C 258.495 74.354,258.343 74.568,258.094 74.663 C 257.884 74.742,257.673 74.958,257.625 75.141 C 257.569 75.357,257.370 75.493,257.061 75.529 C 256.680 75.572,256.573 75.677,256.531 76.042 C 256.482 76.464,256.420 76.500,255.751 76.500 C 255.008 76.500,254.500 76.809,254.500 77.262 C 254.500 77.458,254.057 77.500,252.011 77.500 L 249.522 77.500 249.469 77.042 C 249.419 76.608,249.366 76.581,248.458 76.533 C 247.520 76.484,247.500 76.473,247.500 75.992 C 247.500 75.556,247.443 75.500,247.000 75.500 C 246.556 75.500,246.500 75.444,246.500 75.000 C 246.500 74.556,246.444 74.500,246.000 74.500 C 245.580 74.500,245.500 74.434,245.500 74.091 C 245.500 73.510,245.168 72.856,244.816 72.744 C 244.577 72.669,244.505 72.438,244.466 71.616 C 244.419 70.627,244.397 70.581,243.958 70.531 L 243.500 70.478 243.500 69.000 L 243.500 67.522 243.958 67.469 C 244.415 67.417,244.417 67.412,244.465 65.958 L 244.513 64.500 245.006 64.500 C 245.444 64.500,245.500 64.443,245.500 64.000 C 245.500 63.630,245.578 63.500,245.800 63.500 C 246.184 63.500,246.500 63.184,246.500 62.800 C 246.500 62.622,246.622 62.500,246.800 62.500 C 247.184 62.500,247.500 62.184,247.500 61.800 C 247.500 61.578,247.630 61.500,248.000 61.500 C 248.444 61.500,248.500 61.444,248.500 61.000 L 248.500 60.500 251.989 60.500 L 255.478 60.500 255.531 60.958 M288.622 60.846 C 288.724 61.236,289.284 61.500,290.011 61.500 C 290.443 61.500,290.500 61.558,290.500 62.000 C 290.500 62.444,290.556 62.500,291.000 62.500 C 291.444 62.500,291.500 62.556,291.500 63.000 C 291.500 63.444,291.556 63.500,292.000 63.500 C 292.442 63.500,292.500 63.557,292.500 63.989 C 292.500 64.716,292.764 65.276,293.154 65.378 C 293.490 65.466,293.500 65.566,293.500 68.973 L 293.500 72.478 293.042 72.531 C 292.608 72.581,292.581 72.634,292.533 73.542 C 292.484 74.480,292.473 74.500,291.992 74.500 C 291.556 74.500,291.500 74.557,291.500 75.000 C 291.500 75.444,291.444 75.500,291.000 75.500 C 290.556 75.500,290.500 75.556,290.500 76.000 L 290.500 76.500 289.500 76.500 L 288.500 76.500 288.500 77.000 L 288.500 77.500 285.500 77.500 L 282.500 77.500 282.500 77.000 C 282.500 76.543,282.452 76.500,281.936 76.500 C 281.514 76.500,281.350 76.417,281.286 76.169 C 281.192 75.809,280.553 75.500,279.906 75.500 C 279.578 75.500,279.500 75.415,279.500 75.060 C 279.500 74.790,279.311 74.438,279.011 74.152 C 278.706 73.861,278.503 73.479,278.470 73.134 C 278.425 72.673,278.342 72.575,277.958 72.531 L 277.500 72.478 277.500 69.000 L 277.500 65.522 277.958 65.469 C 278.392 65.419,278.419 65.366,278.467 64.458 C 278.516 63.520,278.527 63.500,279.008 63.500 C 279.444 63.500,279.500 63.443,279.500 63.000 C 279.500 62.556,279.556 62.500,280.000 62.500 C 280.437 62.500,280.500 62.441,280.500 62.030 C 280.500 61.595,280.563 61.550,281.375 61.405 C 282.098 61.277,282.259 61.185,282.303 60.875 C 282.384 60.308,288.474 60.280,288.622 60.846 M334.500 61.000 C 334.500 61.448,334.554 61.500,335.016 61.500 C 335.397 61.500,335.555 61.590,335.622 61.846 C 335.723 62.235,336.283 62.500,337.003 62.500 C 337.471 62.500,337.485 62.525,337.533 63.458 C 337.581 64.366,337.608 64.419,338.042 64.469 C 338.484 64.520,338.500 64.556,338.500 65.511 C 338.500 66.499,338.501 66.500,339.000 66.500 L 339.500 66.500 339.500 69.000 L 339.500 71.500 339.000 71.500 L 338.500 71.500 338.500 72.500 L 338.500 73.500 338.000 73.500 C 337.558 73.500,337.500 73.557,337.500 73.989 C 337.500 74.398,337.426 74.486,337.042 74.531 C 336.682 74.572,336.572 74.682,336.531 75.042 C 336.486 75.426,336.398 75.500,335.989 75.500 C 335.559 75.500,335.500 75.559,335.500 75.992 C 335.500 76.473,335.480 76.484,334.542 76.533 C 333.634 76.581,333.581 76.608,333.531 77.042 L 333.478 77.500 330.989 77.500 C 328.703 77.500,328.500 77.475,328.500 77.200 C 328.500 76.708,328.146 76.500,327.311 76.500 C 326.574 76.500,326.519 76.470,326.469 76.042 C 326.428 75.682,326.318 75.572,325.958 75.531 C 325.655 75.496,325.500 75.380,325.500 75.189 C 325.500 74.819,325.181 74.500,324.811 74.500 C 324.620 74.500,324.504 74.345,324.469 74.042 C 324.428 73.684,324.318 73.572,323.966 73.531 C 323.543 73.482,323.513 73.423,323.466 72.531 C 323.419 71.635,323.392 71.580,322.958 71.531 L 322.500 71.478 322.500 68.989 C 322.500 66.943,322.542 66.500,322.738 66.500 C 323.193 66.500,323.500 65.992,323.500 65.238 C 323.500 64.638,323.556 64.500,323.800 64.500 C 324.293 64.500,324.500 64.146,324.500 63.300 C 324.500 62.522,324.514 62.500,325.000 62.500 C 325.444 62.500,325.500 62.444,325.500 62.000 L 325.500 61.500 326.500 61.500 L 327.500 61.500 327.500 61.000 L 327.500 60.500 331.000 60.500 L 334.500 60.500 334.500 61.000 M25.704 61.806 C 25.541 61.910,25.565 62.007,25.809 62.228 C 26.082 62.475,26.139 62.480,26.221 62.266 C 26.289 62.088,26.239 62.047,26.046 62.121 C 25.843 62.198,25.802 62.154,25.883 61.946 C 26.004 61.628,25.996 61.622,25.704 61.806 M38.033 63.033 C 37.752 63.315,37.784 63.425,38.155 63.453 C 38.378 63.470,38.470 63.378,38.453 63.155 C 38.425 62.784,38.315 62.752,38.033 63.033 M3.751 64.832 C 3.585 65.016,3.503 65.167,3.569 65.167 C 3.745 65.167,4.220 64.665,4.130 64.574 C 4.088 64.532,3.917 64.648,3.751 64.832 M27.667 64.885 C 27.804 65.002,28.013 65.206,28.130 65.337 C 28.309 65.538,28.333 65.513,28.282 65.178 C 28.240 64.904,28.095 64.762,27.819 64.725 C 27.475 64.679,27.453 64.702,27.667 64.885 M0.751 69.832 C 0.585 70.016,0.503 70.167,0.569 70.167 C 0.745 70.167,1.220 69.665,1.130 69.574 C 1.088 69.532,0.917 69.648,0.751 69.832 M0.000 71.167 C 0.000 71.352,0.111 71.500,0.250 71.500 C 0.389 71.500,0.500 71.352,0.500 71.167 C 0.500 70.981,0.389 70.833,0.250 70.833 C 0.111 70.833,0.000 70.981,0.000 71.167 M61.776 72.742 C 61.711 72.912,61.764 72.952,61.954 72.879 C 62.154 72.802,62.198 72.846,62.121 73.046 C 62.047 73.239,62.088 73.289,62.266 73.221 C 62.481 73.138,62.476 73.083,62.231 72.813 C 61.892 72.437,61.893 72.438,61.776 72.742 M0.644 85.625 C 0.730 85.785,0.827 85.990,0.859 86.079 C 0.891 86.169,1.055 86.263,1.224 86.289 C 1.472 86.327,1.441 86.241,1.058 85.835 C 0.515 85.260,0.424 85.214,0.644 85.625 M35.000 85.626 C 35.000 85.718,35.112 85.886,35.250 86.000 C 35.389 86.116,35.500 86.134,35.500 86.041 C 35.500 85.949,35.387 85.781,35.250 85.667 C 35.111 85.551,35.000 85.533,35.000 85.626 M59.751 88.832 C 59.585 89.016,59.503 89.167,59.569 89.167 C 59.745 89.167,60.220 88.665,60.130 88.574 C 60.088 88.532,59.917 88.648,59.751 88.832 M63.167 89.766 C 63.167 89.912,63.017 90.070,62.833 90.118 C 62.650 90.166,62.500 90.272,62.500 90.353 C 62.500 90.554,62.790 90.539,62.918 90.331 C 62.976 90.237,63.104 90.212,63.204 90.273 C 63.308 90.337,63.337 90.308,63.273 90.204 C 63.212 90.104,63.237 89.976,63.331 89.918 C 63.548 89.784,63.550 89.500,63.333 89.500 C 63.242 89.500,63.167 89.620,63.167 89.766 M5.500 95.747 C 5.500 95.760,5.741 95.991,6.035 96.260 C 6.330 96.530,6.477 96.627,6.363 96.476 C 6.248 96.325,6.176 96.109,6.202 95.996 C 6.229 95.883,6.081 95.775,5.875 95.756 C 5.669 95.738,5.500 95.733,5.500 95.747 M3.749 102.862 C 3.767 103.106,3.895 103.233,4.141 103.251 L 4.506 103.278 4.141 102.889 C 3.697 102.417,3.716 102.418,3.749 102.862 M58.500 107.500 C 58.500 107.975,58.576 108.333,58.677 108.333 C 58.774 108.333,58.807 108.259,58.751 108.169 C 58.691 108.071,58.766 108.049,58.937 108.114 C 59.160 108.200,59.200 108.160,59.114 107.937 C 59.049 107.766,59.071 107.691,59.169 107.751 C 59.259 107.807,59.333 107.694,59.333 107.500 C 59.333 107.306,59.259 107.193,59.169 107.249 C 59.071 107.309,59.049 107.234,59.114 107.063 C 59.200 106.840,59.160 106.800,58.937 106.886 C 58.766 106.951,58.691 106.929,58.751 106.831 C 58.807 106.741,58.774 106.667,58.677 106.667 C 58.576 106.667,58.500 107.025,58.500 107.500 " stroke="none" fill="#0c0c0c" fill-rule="evenodd"></path><path id="path3" d="" stroke="none" fill="#140c0c" fill-rule="evenodd"></path><path id="path4" d="M48.833 35.947 C 48.464 36.337,48.457 36.366,48.772 36.198 C 48.968 36.094,49.171 35.895,49.225 35.755 C 49.356 35.414,49.320 35.432,48.833 35.947 M62.743 89.844 C 62.683 89.942,62.673 90.062,62.722 90.111 C 62.842 90.230,63.167 90.020,63.167 89.823 C 63.167 89.611,62.879 89.625,62.743 89.844 M7.703 102.844 C 7.861 102.936,8.064 103.139,8.156 103.297 C 8.248 103.454,8.325 103.495,8.328 103.387 C 8.335 103.133,7.867 102.665,7.613 102.672 C 7.505 102.675,7.546 102.752,7.703 102.844 " stroke="none" fill="#2c3848" fill-rule="evenodd"></path></g></svg>